<?xml version="1.0" encoding="UTF-8"?>
<!DOCTYPE svg PUBLIC "-//W3C//DTD SVG 1.1//EN" "http://www.w3.org/Graphics/SVG/1.1/DTD/svg11.dtd">
<svg version="1.1" xmlns="http://www.w3.org/2000/svg" xmlns:xlink="http://www.w3.org/1999/xlink" width="200" height="200"  xml:space="preserve">
    <path id="bezier2" stroke="rgb(0, 0, 0)" stroke-miterlimit="10" fill="rgb(0, 0, 0)" d="M 180.5,91.5 L 180.5,151.5 171.5,151.5 171.5,91.5 149.17,91.5 C 150.53,92.54 151.83,93.68 153.08,94.92 168.31,110.15 168.31,134.85 153.08,150.08 137.85,165.31 113.15,165.31 97.92,150.08 82.69,134.85 82.69,110.15 97.92,94.92 99.25,93.6 100.64,92.39 102.1,91.3 L 86.5,83.5 180.5,83.5 180.5,91.5 Z M 180.5,91.5" />
    <path id="bezier" stroke="rgb(0, 0, 0)" stroke-miterlimit="10" fill="rgb(0, 0, 0)" d="M 171.5,45.5 L 144.5,71.5 101.5,71.5 75.5,45.5 61.5,45.5 61.5,161.5 168.5,161.5 168.5,176.5 23.5,176.5 23.5,161.5 23.5,45.5 23.5,20.5 171.5,20.5 171.5,45.5 Z M 171.5,45.5" />
</svg>
