<?xml version="1.0" encoding="UTF-8"?>
<!DOCTYPE svg PUBLIC "-//W3C//DTD SVG 1.1//EN" "http://www.w3.org/Graphics/SVG/1.1/DTD/svg11.dtd">
<svg version="1.1" xmlns="http://www.w3.org/2000/svg" xmlns:xlink="http://www.w3.org/1999/xlink" width="200" height="200"  xml:space="preserve">
    <path id="bezier" stroke="rgb(0, 0, 0)" stroke-miterlimit="10" fill="rgb(0, 0, 0)" d="M 50,140 L 10,50 C 10,50 20,45 30,50 40,55 40,55 50,50 60,45 60,45 75,50 90,55 90,55 100,50 110,45 110,45 125,50 140,55 140,55 150,50 160,45 160,45 170,50 180,55 190,50 190,50 L 150,140 50,140 Z M 50,140" />
</svg>
