<?xml version="1.0" encoding="UTF-8"?>
<!DOCTYPE svg PUBLIC "-//W3C//DTD SVG 1.1//EN" "http://www.w3.org/Graphics/SVG/1.1/DTD/svg11.dtd">
<svg version="1.1" xmlns="http://www.w3.org/2000/svg" xmlns:xlink="http://www.w3.org/1999/xlink" width="200" height="200"  xml:space="preserve">
    <path id="bezier" stroke="rgb(0, 0, 0)" stroke-miterlimit="10" fill="rgb(0, 0, 0)" d="M 86.5,80.7 C 94.5,92.97 94.5,112.87 86.5,125.14 83,130.5 78.55,133.52 73.98,134.2 L 73.98,83.19 C 73.98,82.12 73.19,81.24 72.22,81.24 L 71.78,81.24 C 70.81,81.24 70.02,82.12 70.02,83.19 L 70.02,134.2 C 65.45,133.52 61,130.5 57.5,125.14 49.5,112.87 49.5,92.97 57.5,80.7 65.51,68.43 78.49,68.43 86.5,80.7 Z M 86.5,80.7" />
    <path id="bezier2" stroke="rgb(0, 0, 0)" stroke-miterlimit="10" fill="rgb(0, 0, 0)" d="M 127.5,124.7 C 135.5,136.97 135.5,156.87 127.5,169.14 124,174.5 119.55,177.52 114.98,178.2 L 114.98,127.19 C 114.98,126.12 114.19,125.24 113.22,125.24 L 112.78,125.24 C 111.81,125.24 111.02,126.12 111.02,127.19 L 111.02,178.2 C 106.45,177.52 102,174.5 98.5,169.14 90.5,156.87 90.5,136.97 98.5,124.7 106.51,112.43 119.49,112.43 127.5,124.7 Z M 127.5,124.7" />
    <path id="bezier3" stroke="rgb(0, 0, 0)" stroke-miterlimit="10" fill="rgb(0, 0, 0)" d="M 127.5,33.7 C 135.5,45.97 135.5,65.87 127.5,78.14 124,83.5 119.55,86.52 114.98,87.2 L 114.98,36.19 C 114.98,35.12 114.19,34.24 113.22,34.24 L 112.78,34.24 C 111.81,34.24 111.02,35.12 111.02,36.19 L 111.02,87.2 C 106.45,86.52 102,83.5 98.5,78.14 90.5,65.87 90.5,45.97 98.5,33.7 106.51,21.43 119.49,21.43 127.5,33.7 Z M 127.5,33.7" />
</svg>
