<?xml version="1.0" encoding="UTF-8"?>
<!DOCTYPE svg PUBLIC "-//W3C//DTD SVG 1.1//EN" "http://www.w3.org/Graphics/SVG/1.1/DTD/svg11.dtd">
<svg version="1.1" xmlns="http://www.w3.org/2000/svg" xmlns:xlink="http://www.w3.org/1999/xlink" width="200" height="200"  xml:space="preserve">
    <path id="bezier2" stroke="rgb(0, 0, 0)" stroke-miterlimit="10" fill="rgb(0, 0, 0)" d="M 69.09,100.09 C 68.3,100.87 68.3,102.13 69.09,102.91 69.87,103.7 71.13,103.7 71.91,102.91 72.7,102.13 72.7,100.87 71.91,100.09 71.13,99.3 69.87,99.3 69.09,100.09 Z M 50.09,100.09 C 49.3,100.87 49.3,102.13 50.09,102.91 50.87,103.7 52.13,103.7 52.91,102.91 53.7,102.13 53.7,100.87 52.91,100.09 52.13,99.3 50.87,99.3 50.09,100.09 Z M 30.09,100.09 C 29.3,100.87 29.3,102.13 30.09,102.91 30.87,103.7 32.13,103.7 32.91,102.91 33.7,102.13 33.7,100.87 32.91,100.09 32.13,99.3 30.87,99.3 30.09,100.09 Z M 78.09,110.09 C 77.3,110.87 77.3,112.13 78.09,112.91 78.87,113.7 80.13,113.7 80.91,112.91 81.7,112.13 81.7,110.87 80.91,110.09 80.13,109.3 78.87,109.3 78.09,110.09 Z M 60.09,110.09 C 59.3,110.87 59.3,112.13 60.09,112.91 60.87,113.7 62.13,113.7 62.91,112.91 63.7,112.13 63.7,110.87 62.91,110.09 62.13,109.3 60.87,109.3 60.09,110.09 Z M 40.75,109.65 C 40.51,109.74 40.28,109.89 40.09,110.09 39.3,110.87 39.3,112.13 40.09,112.91 40.87,113.7 42.13,113.7 42.91,112.91 43.7,112.13 43.7,110.87 42.91,110.09 42.33,109.5 41.47,109.35 40.75,109.65 Z M 22.94,109.58 C 22.63,109.67 22.33,109.84 22.09,110.09 21.3,110.87 21.3,112.13 22.09,112.91 22.87,113.7 24.13,113.7 24.91,112.91 25.7,112.13 25.7,110.87 24.91,110.09 24.38,109.55 23.62,109.38 22.94,109.58 Z M 69.09,120.09 C 69,120.17 68.93,120.26 68.86,120.36 68.31,121.14 68.39,122.22 69.09,122.91 69.87,123.7 71.13,123.7 71.91,122.91 72.7,122.13 72.7,120.87 71.91,120.09 71.13,119.3 69.87,119.3 69.09,120.09 Z M 50.09,120.09 C 49.3,120.87 49.3,122.13 50.09,122.91 50.87,123.7 52.13,123.7 52.91,122.91 53.7,122.13 53.7,120.87 52.91,120.09 52.13,119.3 50.87,119.3 50.09,120.09 Z M 30.09,120.09 C 29.3,120.87 29.3,122.13 30.09,122.91 30.87,123.7 32.13,123.7 32.91,122.91 33.7,122.13 33.7,120.87 32.91,120.09 32.13,119.3 30.87,119.3 30.09,120.09 Z M 89.54,88.5 L 173.5,88.5 C 175.71,88.5 177.5,90.29 177.5,92.5 L 177.5,100.5 C 177.5,102.71 175.71,104.5 173.5,104.5 L 89.54,104.5 C 88.06,110.58 84.86,116.36 79.95,121.12 L 79.81,121.25 C 65.56,134.92 42.44,134.92 28.19,121.25 18.93,112.37 15.68,99.89 18.46,88.5 L 89.54,88.5 Z M 89.54,88.5" />
</svg>
