<?xml version="1.0" encoding="UTF-8"?>
<!DOCTYPE svg PUBLIC "-//W3C//DTD SVG 1.1//EN" "http://www.w3.org/Graphics/SVG/1.1/DTD/svg11.dtd">
<svg version="1.1" xmlns="http://www.w3.org/2000/svg" xmlns:xlink="http://www.w3.org/1999/xlink" width="200" height="200"  xml:space="preserve">
    <path id="bezier" stroke="rgb(0, 0, 0)" stroke-miterlimit="10" fill="rgb(0, 0, 0)" d="M 111.99,28.01 C 116.67,32.7 116.67,40.3 111.99,44.99 111.58,45.39 111.16,45.76 110.71,46.09 119.71,47.39 128.46,50.85 136.12,56.46 136.63,55.87 137.16,55.29 137.73,54.73 150.03,42.42 169.97,42.42 182.27,54.73 194.58,67.03 194.58,86.97 182.27,99.27 175.92,105.63 167.52,108.7 159.19,108.49 157.87,121.02 152.41,133.2 142.81,142.81 138.28,147.33 133.19,150.93 127.76,153.61 L 152.5,164.5 55.5,164.5 76.5,153.5 77.01,153.5 C 71.67,150.83 66.65,147.26 62.19,142.81 52.02,132.63 46.49,119.56 45.62,106.25 L 17.5,57.5 C 17.5,55.29 34.29,57.5 36.5,57.5 L 49.18,82.31 C 51.95,74.98 56.29,68.1 62.19,62.19 71.67,52.72 83.65,47.28 96,45.87 95.66,45.6 95.33,45.3 95.01,44.99 90.33,40.3 90.33,32.7 95.01,28.01 99.7,23.33 107.3,23.33 111.99,28.01 Z M 145.5,61.65 C 144.96,62.21 144.45,62.8 143.98,63.4 153.09,73.06 158.2,85.13 159.28,97.49 164.76,97.68 170.31,95.64 174.5,91.35 182.5,83.15 182.5,69.85 174.5,61.65 166.49,53.45 153.51,53.45 145.5,61.65 Z M 145.5,61.65" />
</svg>
